<svg width="8" height="14" viewBox="0 0 8 14" fill="none" xmlns="http://www.w3.org/2000/svg">
<path d="M0.292953 0.635987C0.105482 0.823515 0.000165939 1.07782 0.000165939 1.34299C0.000165939 1.60815 0.105482 1.86246 0.292953 2.04999L5.24295 6.99999L0.292953 11.95C0.110795 12.1386 0.0100002 12.3912 0.0122786 12.6534C0.0145569 12.9156 0.119726 13.1664 0.305134 13.3518C0.490542 13.5372 0.741354 13.6424 1.00355 13.6447C1.26575 13.6469 1.51835 13.5461 1.70695 13.364L7.36395 7.70699C7.55142 7.51946 7.65674 7.26515 7.65674 6.99999C7.65674 6.73482 7.55142 6.48052 7.36395 6.29299L1.70695 0.635987C1.51942 0.448516 1.26512 0.343201 0.999952 0.343201C0.734788 0.343201 0.48048 0.448516 0.292953 0.635987Z" fill="#A3A3A3"/>
</svg>
